<?xml version="1.0" encoding="UTF-8" standalone="no"?>
<!-- Created with Inkscape (http://www.inkscape.org/) -->

<svg
   width="210mm"
   height="297mm"
   viewBox="0 0 210 297"
   version="1.1"
   id="svg1"
   xml:space="preserve"
   sodipodi:docname="bk_social.svg"
   inkscape:version="1.4 (86a8ad7, 2024-10-11)"
   xmlns:inkscape="http://www.inkscape.org/namespaces/inkscape"
   xmlns:sodipodi="http://sodipodi.sourceforge.net/DTD/sodipodi-0.dtd"
   xmlns="http://www.w3.org/2000/svg"
   xmlns:svg="http://www.w3.org/2000/svg"><sodipodi:namedview
     id="namedview1"
     pagecolor="#ffffff"
     bordercolor="#000000"
     borderopacity="0.25"
     inkscape:showpageshadow="2"
     inkscape:pageopacity="0.0"
     inkscape:pagecheckerboard="0"
     inkscape:deskcolor="#d1d1d1"
     inkscape:document-units="mm"
     inkscape:zoom="0.69670057"
     inkscape:cx="371.75225"
     inkscape:cy="283.47903"
     inkscape:window-width="1360"
     inkscape:window-height="697"
     inkscape:window-x="1358"
     inkscape:window-y="-8"
     inkscape:window-maximized="1"
     inkscape:current-layer="layer1" /><defs
     id="defs1"><filter
       inkscape:label="Ridged Border"
       inkscape:menu="Bevels"
       inkscape:menu-tooltip="Ridged border with inner bevel"
       style="color-interpolation-filters:sRGB;"
       id="filter11"
       x="0"
       y="0"
       width="1"
       height="1"><feMorphology
         radius="4.3"
         in="SourceAlpha"
         result="result91"
         id="feMorphology10" /><feComposite
         operator="out"
         in="SourceGraphic"
         in2="result91"
         id="feComposite10" /><feGaussianBlur
         result="result0"
         stdDeviation="1"
         id="feGaussianBlur10" /><feDiffuseLighting
         diffuseConstant="1"
         id="feDiffuseLighting10"><feDistantLight
           elevation="50"
           azimuth="225"
           id="feDistantLight10" /></feDiffuseLighting><feBlend
         mode="multiply"
         in2="SourceGraphic"
         id="feBlend10" /><feGaussianBlur
         result="result10"
         stdDeviation="0.5"
         id="feGaussianBlur11" /><feComposite
         operator="in"
         in="result10"
         in2="SourceAlpha"
         id="feComposite11" /></filter></defs><g
     inkscape:label="Camada 1"
     inkscape:groupmode="layer"
     id="layer1"><path
       style="fill:#ff0000;stroke:none;stroke-width:0.553687;filter:url(#filter11)"
       d="m 83.320597,78.50338 c -1.708597,0.466633 -2.981514,2.660529 -3.152151,5.146464 -0.187296,2.728636 -0.01744,5.603029 -0.01744,8.345842 v 16.244594 c 0,3.18174 -0.231177,6.82196 2.044894,8.58445 1.479441,1.14561 3.489852,0.65558 5.112235,0.65558 h 10.837941 32.207094 9.61099 c 1.50085,0 3.36987,0.43299 4.8055,-0.24907 2.20661,-1.04834 2.76062,-3.86051 2.76062,-6.90451 V 87.524697 c 0,-3.530559 0.10333,-7.159847 -2.55612,-8.725439 -1.60789,-0.946546 -3.90795,-0.365563 -5.62347,-0.365563 H 127.18358 97.532613 88.023854 c -1.505373,0 -3.222969,-0.3346 -4.703257,0.06965 m 0.102245,2.663615 c 1.435788,-0.403461 3.138636,-0.05069 4.601012,-0.05069 h 9.406513 29.241993 12.37161 c 1.61552,0 4.0007,-0.644845 5.52121,0.168923 1.86689,0.999151 1.32918,4.863945 1.32918,7.133691 v 19.672346 c 0,2.26312 0.43736,5.6069 -1.43142,6.54134 -1.25978,0.62993 -3.07114,0.16513 -4.39653,0.16513 H 130.55765 98.657304 87.71712 c -1.366475,0 -3.449002,0.56483 -4.703257,-0.30554 -1.630123,-1.13118 -1.124692,-4.54566 -1.124692,-6.699 V 88.120816 c 0,-2.246073 -0.565693,-6.363905 1.533671,-6.953836 m 0.117392,2.039888 c -0.360041,0.310737 -0.321137,0.958644 -0.321881,1.486188 v 4.172921 17.585883 4.62002 c 7.24e-4,0.61362 -0.04205,1.38807 0.420102,1.67777 1.014164,0.63576 2.874792,0.11063 3.97642,0.11063 h 9.508758 32.922797 10.42896 c 0.93529,0 3.09807,0.58177 3.86195,-0.25966 0.76042,-0.83762 0.33008,-4.5682 0.33008,-5.85069 V 89.611146 84.84209 c -5.3e-4,-0.606067 0.0436,-1.417954 -0.4201,-1.698466 -1.01766,-0.61573 -2.87438,-0.08993 -3.97641,-0.08993 H 130.86439 98.14608 87.614875 c -1.016743,0 -3.196358,-0.604822 -4.074641,0.153174 z"
       id="path2"
       transform="matrix(0.72411509,0,0,1.2026266,22.092981,-23.832093)" /></g></svg>
