

<svg
   width="100mm"
   height="100mm"
   viewBox="0 0 210 297"
   version="1.1"
   id="svg1"
   xml:space="preserve"
   inkscape:version="1.4 (86a8ad7, 2024-10-11)"
   sodipodi:docname="button_bk.svg"
   xmlns:inkscape="http://www.inkscape.org/namespaces/inkscape"
   xmlns:sodipodi="http://sodipodi.sourceforge.net/DTD/sodipodi-0.dtd"
   xmlns="http://www.w3.org/2000/svg"
   xmlns:svg="http://www.w3.org/2000/svg"><sodipodi:namedview
     id="namedview1"
     pagecolor="#ffffff"
     bordercolor="#000000"
     borderopacity="0.25"
     inkscape:showpageshadow="2"
     inkscape:pageopacity="0.0"
     inkscape:pagecheckerboard="0"
     inkscape:deskcolor="#d1d1d1"
     inkscape:document-units="mm"
     inkscape:zoom="0.49264169"
     inkscape:cx="395.82521"
     inkscape:cy="236.48019"
     inkscape:window-width="1360"
     inkscape:window-height="697"
     inkscape:window-x="1358"
     inkscape:window-y="-8"
     inkscape:window-maximized="1"
     inkscape:current-layer="layer1" /><defs
     id="defs1"><filter
       inkscape:label="Ridged Border"
       inkscape:menu="Bevels"
       inkscape:menu-tooltip="Ridged border with inner bevel"
       style="color-interpolation-filters:sRGB;"
       id="filter3"
       x="0"
       y="0"
       width="1"
       height="1"><feMorphology
         radius="4.3"
         in="SourceAlpha"
         result="result91"
         id="feMorphology2" /><feComposite
         operator="out"
         in="SourceGraphic"
         in2="result91"
         id="feComposite2" /><feGaussianBlur
         result="result0"
         stdDeviation="1"
         id="feGaussianBlur2" /><feDiffuseLighting
         diffuseConstant="1"
         id="feDiffuseLighting2"><feDistantLight
           elevation="50"
           azimuth="225"
           id="feDistantLight2" /></feDiffuseLighting><feBlend
         mode="multiply"
         in2="SourceGraphic"
         id="feBlend2" /><feGaussianBlur
         result="result10"
         stdDeviation="0.5"
         id="feGaussianBlur3" /><feComposite
         operator="in"
         in="result10"
         in2="SourceAlpha"
         id="feComposite3" /></filter></defs><g
     inkscape:label="Camada 1"
     inkscape:groupmode="layer"
     id="layer1"><path
       style="fill:#ff0000;stroke:none;filter:url(#filter3)"
       d="m 26.509289,78.225903 c -4.421414,0.5882 -7.715401,3.35365 -8.156965,6.48722 -0.484674,3.4395 -0.04512,7.06273 -0.04512,10.5201 v 20.476637 c 0,4.01065 -0.598228,8.59922 5.291667,10.82088 3.828415,1.44406 9.030848,0.82637 13.229166,0.82637 h 28.045834 83.343749 24.87083 c 3.88379,0 8.72035,0.54579 12.43542,-0.31396 5.71013,-1.32145 7.14375,-4.86625 7.14375,-8.70327 V 89.597453 c 0,-4.45034 0.26742,-9.02513 -6.61459,-10.99859 -4.1608,-1.19314 -10.11278,-0.4608 -14.55208,-0.4608 H 140.01554 63.286373 38.680123 c -3.895523,0 -8.340223,-0.42177 -12.170834,0.0878 m 0.264584,3.35754 c 3.715455,-0.50857 8.121995,-0.0639 11.90625,-0.0639 h 24.341666 75.670841 32.01458 c 4.18056,0 10.35279,-0.81284 14.2875,0.21293 4.83104,1.25945 3.43958,6.1311 3.43958,8.99216 v 24.797387 c 0,2.85271 1.13178,7.06761 -3.70416,8.2455 -3.25998,0.79403 -7.94734,0.20815 -11.37709,0.20815 H 148.74679 66.196789 37.886373 c -3.536089,0 -8.92514,0.71197 -12.170834,-0.38514 -4.218343,-1.42588 -2.910416,-5.7299 -2.910416,-8.44423 V 90.348873 c 0,-2.83122 -1.46387,-8.02183 3.96875,-8.76545 m 0.30378,2.57132 c -0.931695,0.39169 -0.83102,1.20839 -0.832947,1.87337 v 5.26005 22.167367 5.82363 c 0.0018,0.77347 -0.108811,1.74968 1.087119,2.11486 2.624401,0.80138 7.43923,0.13945 10.289964,0.13945 h 24.60625 85.195841 26.9875 c 2.4203,0 8.01701,0.73333 9.99374,-0.32731 1.96777,-1.05584 0.85417,-5.7583 0.85417,-7.37491 v -21.603787 -6.01149 c -0.002,-0.76396 0.11266,-1.78736 -1.08711,-2.14095 -2.63346,-0.77614 -7.43817,-0.11336 -10.28997,-0.11336 H 149.54054 64.873873 37.621789 c -2.631073,0 -8.27136,-0.76239 -10.544136,0.19308 z"
       id="path2"
       transform="matrix(0.91384444,0,0,0.97834928,3.1727431,1.6869303)" /></g></svg>
